# xmcd CD database file
#
# Track frame offsets:
#	150
#	29612
#	50646
#	75334
#	109482
#	169558
#	238316
#
# Disc length: 3798 seconds
#
# Revision: 1
# Processed by: cddbd v1.5.2PL0 Copyright (c) Steve Scherf et al.
# Submitted via: CDex 1.51
#
DISCID=580ed407
DTITLE=The Derek Trucks Band - Live At Georgia Theatre
DYEAR=1900
DGENRE=Blues Rock
TTITLE0=Gonna Move
TTITLE1=Volunteered Slavery
TTITLE2=I Wish I Knew
TTITLE3=Feel So Bad
TTITLE4=For My Brother
TTITLE5=Sonido Alegre
TTITLE6=Freddie's Dead
EXTD=
EXTT0=
EXTT1=
EXTT2=
EXTT3=
EXTT4=
EXTT5=
EXTT6=
PLAYORDER=
